<svg width="181" height="87" viewBox="0 0 181 87" fill="none" xmlns="http://www.w3.org/2000/svg">
<path d="M133.029 26.0178C133.833 26.0178 134.407 26.0178 134.952 26.0178C141.18 26.0178 147.379 25.9888 153.607 26.0178C154.641 26.0178 155.1 25.7277 155.416 24.683C156.391 21.346 157.511 18.0671 158.515 14.7301C158.774 13.8305 159.233 13.4823 160.151 13.5694C161.184 13.6564 162.246 13.5984 163.452 13.5984C163.308 14.2368 163.193 14.7301 163.05 15.1943C161.931 18.8796 160.811 22.5938 159.663 26.279C158.802 29.0647 156.851 30.5446 154.038 30.5736C117.272 30.5736 80.5065 30.5736 43.7121 30.5736C43.2529 30.5736 42.765 30.5446 42.0762 30.4865C42.9085 27.8459 43.7121 25.3504 44.487 22.8259C46.7257 15.6876 48.9931 8.54936 51.1743 1.41108C51.49 0.337432 51.9779 -0.0978436 53.0973 0.0182261C54.1305 0.105278 55.1637 0.0472541 56.5127 0.0472541C53.7287 8.81051 51.0595 17.2546 48.3329 25.8728C69.4567 25.8728 90.3796 25.8728 111.36 25.8728C111.331 21.5201 113.053 17.6318 114.431 13.7145C115.521 10.5516 118.133 8.81051 121.491 8.69444C124.734 8.57837 128.006 8.57837 131.249 8.69444C134.894 8.83953 137.104 11.7123 136.272 15.3684C135.526 18.5604 134.407 21.6652 133.459 24.7991C133.345 25.0893 133.23 25.4085 133.029 26.0178ZM125.682 13.3372C124.333 13.3082 123.012 13.3082 121.663 13.3082C120.085 13.3082 118.994 14.0917 118.478 15.5425C117.645 18.009 116.87 20.5045 116.21 23C115.722 24.8571 116.583 25.9018 118.478 25.9598C120.86 26.0178 123.242 25.9888 125.653 25.9888C127.231 25.9598 128.466 25.2634 129.011 23.7255C129.929 21.0268 130.79 18.3282 131.537 15.5716C131.91 14.1787 131.192 13.3662 129.7 13.3372C128.351 13.3082 127.03 13.3372 125.682 13.3372Z" fill="white"/>
<path d="M79.1278 72.5327C77.7501 72.5327 76.7456 72.4457 75.7698 72.5617C74.4782 72.6778 73.4737 72.5037 72.9571 71.0528C72.8423 70.7337 72.0387 70.4725 71.5795 70.4725C67.5614 70.4435 63.5432 70.4435 59.5251 70.4725C54.1294 70.5015 51.4028 66.9033 52.924 61.6802C54.1294 57.5597 55.3635 53.4393 56.6838 49.3478C58.3197 44.2117 62.1656 41.4551 67.4466 41.4551C72.9571 41.4551 78.4389 41.4551 83.9495 41.4551C89.2017 41.4551 92.1005 45.0242 90.7803 50.1603C89.6323 54.629 88.1972 59.0686 86.7335 63.4503C85.8724 66.0909 84.1791 68.1801 81.4525 69.4279C80.7637 67.977 80.1323 66.6132 79.4435 65.1333C81.3664 64.0016 81.9404 62.0865 82.5145 60.1713C83.4616 57.0374 84.4948 53.9035 85.4132 50.7697C86.2456 47.984 85.2984 46.7072 82.4571 46.7072C77.2335 46.7072 72.0387 46.7072 66.8151 46.7072C63.8877 46.7072 62.4526 47.8099 61.5916 50.6536C60.4723 54.2517 59.3816 57.8499 58.2623 61.4481C57.4587 64.0306 58.3197 65.1913 61.0463 65.2203C65.5523 65.2494 70.0296 65.2494 74.5356 65.2203C75.4828 65.2203 75.9994 65.4815 76.3725 66.381C77.1761 68.3542 78.0945 70.2984 79.1278 72.5327Z" fill="white"/>
<path d="M119.367 69.7467C120.142 67.2802 120.831 65.0749 121.577 62.6955C117.043 62.6955 112.651 62.6955 107.916 62.6955C108.547 60.9834 109.064 59.4746 109.695 58.0817C109.81 57.8206 110.499 57.6755 110.929 57.6755C114.373 57.6464 117.818 57.5884 121.262 57.7045C122.697 57.7625 123.386 57.3853 123.759 55.9344C124.505 53.0617 125.481 50.247 126.37 47.2872C122.123 47.2872 118.018 47.2002 113.943 47.3162C112.077 47.3743 110.528 48.4189 109.207 49.7827C107.112 51.959 106.022 54.6286 105.189 57.2692C105.993 57.7045 107.084 57.9947 107.141 58.4009C107.284 59.5906 107.141 60.8964 106.796 62.0571C106.682 62.4053 105.562 62.6375 104.931 62.5794C103.697 62.4924 103.152 62.9566 102.836 64.1463C102.463 65.6843 101.86 67.1642 101.429 68.7021C101.2 69.4856 100.798 69.7757 99.9944 69.7467C98.6742 69.6887 97.3539 69.7177 95.7754 69.7177C96.1485 68.4699 96.4355 67.4543 96.7799 66.4677C98.0428 62.5794 99.2482 58.6621 100.626 54.7737C102.061 50.6823 104.213 47.1131 107.858 44.5886C110.298 42.9056 112.967 42.0061 115.923 42.0061C120.171 42.0061 124.447 41.977 128.695 42.0061C131.594 42.0061 132.799 43.6601 131.938 46.4167C129.671 53.7001 127.375 60.9544 125.165 68.2668C124.821 69.3985 124.304 69.8338 123.156 69.7467C121.979 69.6597 120.831 69.7467 119.367 69.7467Z" fill="white"/>
<path d="M146.029 50.3049C144.163 56.3116 142.298 62.057 140.633 67.8605C140.174 69.4274 139.514 70.0078 137.964 69.8046C137.046 69.6886 136.07 69.7756 135.008 69.7756C135.065 69.2823 135.065 68.9631 135.151 68.673C137.648 60.5481 140.145 52.4232 142.642 44.3273C143.044 43.0506 143.934 42.2961 145.225 42.093C146.517 41.8899 147.579 42.093 148.44 43.3698C151.913 48.5929 155.5 53.729 159.03 58.8941C159.604 59.7356 160.178 60.5481 160.867 61.5347C161.068 61.0704 161.24 60.7802 161.326 60.432C163.048 54.8607 164.828 49.2893 166.464 43.6599C166.866 42.3251 167.44 41.8609 168.76 42.006C169.793 42.122 170.855 42.035 172.118 42.035C171.946 42.7314 171.86 43.2247 171.716 43.718C169.363 51.3786 167.009 59.0392 164.656 66.6998C164.197 68.1797 163.508 69.3694 161.929 69.7756C160.552 70.1238 159.49 69.8917 158.6 68.5569C154.639 62.6954 150.592 56.8629 146.574 51.0304C146.459 50.8273 146.316 50.6532 146.029 50.3049Z" fill="white"/>
<path d="M68.6816 86.1418C69.1696 84.6039 69.4853 83.2981 70.0306 82.0794C70.1741 81.7312 70.949 81.528 71.4369 81.528C78.6121 81.499 85.7873 81.499 92.9338 81.499C103.123 81.499 113.283 81.499 123.471 81.499C124.132 81.499 124.792 81.499 125.71 81.499C125.251 83.0079 124.993 84.3427 124.447 85.5324C124.275 85.8806 123.443 86.1128 122.897 86.1128C115.407 86.1418 107.887 86.1418 100.396 86.1418C90.4942 86.1418 80.6212 86.1418 70.7194 86.1418C70.1454 86.1418 69.5427 86.1418 68.6816 86.1418Z" fill="#38368E"/>
<path d="M40.5554 11.8281C39.9814 13.8013 39.4934 15.4553 39.0055 17.0803C38.0871 20.0691 37.1687 23.0579 36.2503 26.0757C35.3318 29.1225 33.495 30.5444 30.3666 30.5444C25.1144 30.5734 19.8621 30.5734 14.6099 30.5734C11.0223 30.5734 9.64463 28.7163 10.6779 25.2342C11.4528 22.5356 12.3138 19.895 13.1174 17.1963C13.347 16.4129 13.7488 16.1227 14.5525 16.1517C15.6431 16.2098 16.7337 16.1807 18.1401 16.1807C17.1642 19.4887 16.2745 22.5936 15.3274 25.8726C15.8153 25.9306 16.2171 25.9886 16.6189 25.9886C21.1536 25.9886 25.6884 25.9596 30.2231 26.0176C31.2563 26.0176 31.6294 25.6404 31.8877 24.7119C33.0071 20.9686 34.2125 17.2544 35.3318 13.5111C35.6188 12.5536 36.0206 12.0312 37.0826 12.0603C38.0871 12.0893 39.1203 11.9442 40.5554 11.8281Z" fill="white"/>
<path d="M50.599 42.2675C50.1685 43.7184 49.8241 45.1112 49.25 46.417C49.0778 46.8232 48.2455 47.1714 47.7002 47.1714C40.1232 47.2295 32.5175 47.2005 24.9405 47.2005C23.6202 47.2005 22.2713 47.2005 20.6641 47.2005C21.2094 45.5174 21.6399 44.0085 22.1852 42.5286C22.2713 42.2675 22.7879 42.0354 23.0749 42.0354C32.087 42.0063 41.1277 42.0354 50.1398 42.0354C50.2259 42.0934 50.312 42.1514 50.599 42.2675Z" fill="white"/>
<path d="M0 69.7471C1.26283 65.5976 2.43956 61.7673 3.6163 57.966C5.13744 53.0911 6.68728 48.2162 8.17972 43.3122C8.46673 42.3837 8.83984 41.9194 9.87307 42.0064C11.0498 42.0935 12.2552 42.0355 13.6903 42.0355C13.432 42.964 13.2598 43.7185 13.0589 44.4149C10.5906 52.3947 8.12232 60.3745 5.68275 68.3543C5.36704 69.3989 4.90783 69.8632 3.7885 69.7761C2.61177 69.6891 1.43504 69.7471 0 69.7471Z" fill="white"/>
<path d="M166.752 27.0048C167.469 24.7414 168.043 22.7682 168.675 20.7951C170.741 14.3822 172.837 7.96935 174.846 1.52748C175.19 0.3958 175.649 -0.0684717 176.855 0.047598C177.83 0.163668 178.835 0.0766083 180.04 0.0766083C179.782 1.0632 179.639 1.78864 179.409 2.51408C176.998 10.0296 174.559 17.5741 172.176 25.0896C171.918 25.9311 171.516 26.3954 170.598 26.4535C169.45 26.5405 168.273 26.7726 166.752 27.0048Z" fill="white"/>
<path d="M25.084 69.7764C25.8876 67.0777 26.6051 64.6983 27.3513 62.2899C28.3559 59.0109 29.4178 55.761 30.4223 52.511C30.6519 51.7275 31.0537 51.4083 31.8574 51.4374C33.1489 51.4664 34.4117 51.4374 35.9042 51.4374C35.7033 52.1918 35.5885 52.7141 35.445 53.2654C33.8377 58.3725 32.2305 63.4506 30.6519 68.5867C30.3649 69.4862 29.9631 69.8344 29.0447 69.8054C27.8106 69.7183 26.5764 69.7764 25.084 69.7764Z" fill="white"/>
<path d="M141.322 77.2627C141.264 78.5975 140.547 79.0038 139.341 78.9167C138.107 78.8297 136.844 78.9748 135.61 78.8877C134.405 78.8007 133.802 79.2069 133.917 80.6288C135.754 80.6288 137.591 80.6288 139.514 80.6288C139.514 81.9346 139.227 82.689 137.82 82.5729C136.73 82.4859 135.61 82.66 134.52 82.6019C133.4 82.5439 132.769 82.8631 132.826 84.314C134.922 84.314 137.017 84.314 139.112 84.314C139.198 85.7939 138.767 86.3742 137.418 86.3162C135.036 86.2291 132.654 86.2872 130.014 86.2872C130.932 83.2403 131.793 80.3966 132.712 77.5529C132.798 77.2918 133.257 76.9726 133.573 76.9726C136.041 76.9435 138.538 77.0016 141.006 77.0596C141.121 77.0596 141.236 77.2047 141.322 77.2627Z" fill="#38368E"/>
<path d="M148.756 83.4141C149.388 84.3426 149.904 85.1551 150.536 86.0547C149.244 86.4609 148.182 86.5189 147.436 85.1841C147.12 84.6038 146.69 83.9944 146.173 83.6462C145.168 82.9788 143.762 83.5882 143.475 84.8649C143.188 86.1417 142.614 86.606 141.15 86.0837C142.011 83.298 142.815 80.5123 143.762 77.7557C143.906 77.3784 144.652 77.0012 145.14 77.0012C146.948 76.9142 148.785 76.9432 150.593 77.0012C152.085 77.0593 152.659 77.8427 152.315 79.2936C151.884 81.2378 151.023 82.8918 148.756 83.4141ZM144.594 81.5279C145.8 81.5279 146.891 81.5279 147.981 81.5279C149.818 81.4989 150.335 80.8896 150.249 78.8874C149.301 78.8874 148.383 78.8874 147.436 78.8874C145.111 78.9164 145.111 78.9164 144.594 81.5279Z" fill="#38368E"/>
<path d="M152.688 86.0839C153.491 83.4433 154.18 80.8317 155.07 78.3072C155.299 77.6978 156.189 77.0595 156.849 77.0014C158.456 76.8273 160.092 76.8853 161.7 76.9724C163.422 77.0594 164.053 77.959 163.737 79.7C163.278 82.3696 161.556 83.8495 158.887 83.8785C158.227 83.8785 157.538 83.9366 156.878 83.8495C155.73 83.7335 154.955 84.0236 154.754 85.3294C154.582 86.6062 153.692 86.316 152.688 86.0839ZM155.873 82.0504C157.366 82.0504 158.686 82.2245 159.92 81.9924C160.609 81.8473 161.212 81.0348 161.7 80.3964C161.9 80.1353 161.7 79.1197 161.671 79.1197C160.064 79.0617 158.485 79.0616 156.878 79.0907C156.792 79.0907 156.706 79.2938 156.648 79.4389C156.39 80.2514 156.16 81.0638 155.873 82.0504Z" fill="#38368E"/>
<path d="M173.409 33.4757C173.237 36.1163 173.065 36.2904 170.884 36.2904C168.616 36.2904 166.349 36.2904 164.053 36.2904C164.282 33.8529 164.368 33.7368 166.32 33.3306C167.526 29.1811 168.989 28.2816 172.806 29.4132C172.548 30.69 172.347 31.7637 170.482 31.2994C169.19 30.9802 168.874 32.1119 168.903 33.5047C170.424 33.4757 171.917 33.4757 173.409 33.4757Z" fill="white"/>
<path d="M165.633 6.08243C165.145 7.64937 164.801 8.92613 164.37 10.1739C164.284 10.406 163.911 10.7252 163.653 10.7252C162.332 10.7833 161.041 10.7542 159.434 10.7542C159.922 9.18729 160.295 7.91052 160.754 6.69179C160.84 6.43063 161.299 6.14046 161.586 6.11144C162.82 6.02439 164.054 6.08243 165.633 6.08243Z" fill="white"/>
<path d="M153.176 10.7252C153.635 9.21633 154.008 7.88153 154.467 6.60476C154.553 6.37262 154.955 6.11146 155.214 6.11146C156.476 6.05343 157.768 6.08245 159.318 6.08245C158.83 7.62038 158.457 8.95518 158.026 10.261C157.969 10.4641 157.624 10.7252 157.423 10.7252C156.046 10.7543 154.726 10.7252 153.176 10.7252Z" fill="white"/>
<path d="M24.166 13.2216C24.2521 12.7573 24.2808 12.5832 24.3095 12.4091C25.3427 8.31764 25.5437 8.17256 30.1071 8.81094C29.6766 10.2038 29.2748 11.5386 28.8442 12.8734C28.7868 13.0475 28.4711 13.2216 28.2702 13.2216C26.9787 13.2506 25.6585 13.2216 24.166 13.2216Z" fill="white"/>
<path d="M128.062 5.7924C128.206 5.15402 128.263 4.77679 128.35 4.42858C129.239 0.91747 130.158 0.424177 133.975 1.43979C133.602 2.71655 133.229 3.99331 132.798 5.24106C132.712 5.4732 132.339 5.76339 132.081 5.76339C130.818 5.82142 129.555 5.7924 128.062 5.7924Z" fill="white"/>
<path d="M121.863 5.7929C122.351 4.28399 122.696 3.00722 123.155 1.75947C123.241 1.49832 123.7 1.20815 123.987 1.20815C125.221 1.15012 126.455 1.17912 127.919 1.17912C127.489 2.65901 127.144 3.93579 126.714 5.18354C126.628 5.4447 126.283 5.73487 126.025 5.76389C124.733 5.82193 123.413 5.7929 121.863 5.7929Z" fill="white"/>
</svg>
