<svg width="181" height="87" viewBox="0 0 181 87" fill="none" xmlns="http://www.w3.org/2000/svg">
<path d="M133.029 26.0191C133.833 26.0191 134.407 26.0191 134.952 26.0191C141.18 26.0191 147.38 25.9901 153.608 26.0191C154.641 26.0191 155.1 25.7289 155.416 24.6842C156.392 21.3471 157.511 18.0679 158.516 14.7308C158.774 13.8312 159.233 13.483 160.151 13.57C161.185 13.6571 162.247 13.599 163.452 13.599C163.309 14.2375 163.194 14.7308 163.05 15.1951C161.931 18.8805 160.812 22.5949 159.664 26.2803C158.803 29.0661 156.851 30.546 154.038 30.5751C117.272 30.5751 80.5066 30.5751 43.7121 30.5751C43.2529 30.5751 42.765 30.546 42.0762 30.488C42.9085 27.8473 43.7121 25.3517 44.487 22.827C46.7257 15.6884 48.9931 8.54978 51.1743 1.41114C51.49 0.337448 51.978 -0.0978483 53.0973 0.018227C54.1305 0.105283 55.1638 0.0472564 56.5127 0.0472564C53.7287 8.81094 51.0595 17.2554 48.333 25.874C69.4568 25.874 90.3797 25.874 111.36 25.874C111.331 21.5212 113.053 17.6327 114.431 13.7151C115.522 10.5521 118.133 8.81094 121.491 8.69486C124.735 8.57879 128.007 8.57879 131.25 8.69486C134.895 8.83996 137.105 11.7128 136.272 15.3692C135.526 18.5613 134.407 21.6663 133.46 24.8003C133.345 25.0905 133.23 25.4097 133.029 26.0191ZM125.682 13.3379C124.333 13.3089 123.013 13.3089 121.664 13.3089C120.085 13.3089 118.994 14.0924 118.478 15.5433C117.646 18.0099 116.871 20.5055 116.21 23.0011C115.723 24.8583 116.584 25.903 118.478 25.9611C120.86 26.0191 123.242 25.9901 125.653 25.9901C127.232 25.9611 128.466 25.2646 129.011 23.7266C129.929 21.0279 130.791 18.3291 131.537 15.5723C131.91 14.1794 131.192 13.3669 129.7 13.3379C128.351 13.3089 127.031 13.3379 125.682 13.3379Z" fill="#1C1C1C"/>
<path d="M79.1298 72.5362C77.7521 72.5362 76.7476 72.4491 75.7718 72.5652C74.4803 72.6813 73.4757 72.5072 72.9591 71.0562C72.8443 70.737 72.0407 70.4759 71.5815 70.4759C67.5633 70.4468 63.5452 70.4468 59.5271 70.4759C54.1313 70.5049 51.4048 66.9065 52.9259 61.6831C54.1313 57.5625 55.3655 53.4418 56.6857 49.3501C58.3217 44.2138 62.1676 41.457 67.4485 41.457C72.9591 41.457 78.441 41.457 83.9515 41.457C89.2038 41.457 92.1026 45.0263 90.7823 50.1627C89.6343 54.6316 88.1993 59.0715 86.7355 63.4533C85.8745 66.094 84.1811 68.1834 81.4546 69.4312C80.7657 67.9802 80.1343 66.6163 79.4455 65.1364C81.3685 64.0046 81.9425 62.0894 82.5165 60.1742C83.4636 57.0401 84.4969 53.9061 85.4153 50.7721C86.2476 47.9863 85.3005 46.7094 82.4591 46.7094C77.2355 46.7094 72.0407 46.7094 66.8171 46.7094C63.8896 46.7094 62.4546 47.8121 61.5936 50.656C60.4742 54.2543 59.3836 57.8527 58.2643 61.451C57.4606 64.0337 58.3217 65.1944 61.0482 65.2234C65.5543 65.2525 70.0316 65.2525 74.5377 65.2234C75.4848 65.2234 76.0014 65.4846 76.3745 66.3842C77.1781 68.3575 78.0966 70.3017 79.1298 72.5362Z" fill="#1C1C1C"/>
<path d="M119.367 69.75C120.142 67.2834 120.831 65.078 121.577 62.6984C117.043 62.6984 112.651 62.6984 107.916 62.6984C108.547 60.9863 109.064 59.4774 109.695 58.0844C109.81 57.8233 110.499 57.6782 110.929 57.6782C114.374 57.6492 117.818 57.5911 121.262 57.7072C122.697 57.7652 123.386 57.388 123.759 55.937C124.505 53.0642 125.481 50.2494 126.371 47.2894C122.123 47.2894 118.019 47.2024 113.943 47.3185C112.077 47.3765 110.528 48.4212 109.207 49.7851C107.112 51.9615 106.022 54.6312 105.189 57.2719C105.993 57.7072 107.084 57.9974 107.141 58.4036C107.284 59.5934 107.141 60.8993 106.797 62.06C106.682 62.4083 105.562 62.6404 104.931 62.5824C103.697 62.4953 103.152 62.9596 102.836 64.1494C102.463 65.6874 101.86 67.1673 101.429 68.7053C101.2 69.4888 100.798 69.779 99.9944 69.75C98.6742 69.692 97.3539 69.721 95.7754 69.721C96.1485 68.4732 96.4355 67.4575 96.7799 66.4709C98.0428 62.5824 99.2482 58.6648 100.626 54.7763C102.061 50.6846 104.213 47.1153 107.858 44.5907C110.298 42.9076 112.967 42.008 115.923 42.008C120.171 42.008 124.448 41.979 128.695 42.008C131.594 42.008 132.799 43.6621 131.938 46.4189C129.671 53.7026 127.375 60.9573 125.165 68.27C124.821 69.4018 124.304 69.8371 123.156 69.75C121.979 69.663 120.831 69.75 119.367 69.75Z" fill="#1C1C1C"/>
<path d="M146.031 50.3083C144.165 56.3152 142.3 62.0609 140.635 67.8647C140.176 69.4317 139.516 70.012 137.966 69.8089C137.048 69.6928 136.072 69.7799 135.01 69.7799C135.067 69.2866 135.067 68.9674 135.153 68.6772C137.65 60.5519 140.147 52.4266 142.644 44.3304C143.046 43.0536 143.936 42.2991 145.227 42.0959C146.519 41.8928 147.581 42.0959 148.442 43.3728C151.915 48.5962 155.502 53.7325 159.032 58.8978C159.606 59.7394 160.18 60.5519 160.869 61.5385C161.07 61.0742 161.242 60.7841 161.328 60.4358C163.051 54.8642 164.83 49.2926 166.466 43.663C166.868 42.3281 167.442 41.8638 168.762 42.0089C169.795 42.125 170.857 42.0379 172.12 42.0379C171.948 42.7344 171.862 43.2277 171.718 43.721C169.365 51.382 167.011 59.0429 164.658 66.7039C164.199 68.1839 163.51 69.3736 161.931 69.7799C160.554 70.1281 159.492 69.896 158.602 68.5611C154.641 62.6993 150.594 56.8665 146.576 51.0337C146.461 50.8306 146.318 50.6565 146.031 50.3083Z" fill="#1C1C1C"/>
<path d="M68.6816 86.1459C69.1696 84.6079 69.4853 83.3021 70.0306 82.0833C70.1741 81.7351 70.949 81.5319 71.4369 81.5319C78.6121 81.5029 85.7874 81.5029 92.9339 81.5029C103.123 81.5029 113.283 81.5029 123.472 81.5029C124.132 81.5029 124.792 81.5029 125.71 81.5029C125.251 83.0119 124.993 84.3468 124.447 85.5365C124.275 85.8848 123.443 86.1169 122.898 86.1169C115.407 86.1459 107.887 86.1459 100.396 86.1459C90.4943 86.1459 80.6212 86.1459 70.7194 86.1459C70.1454 86.1459 69.5427 86.1459 68.6816 86.1459Z" fill="#38368E"/>
<path d="M40.5535 11.8291C39.9795 13.8024 39.4916 15.4565 39.0037 17.0815C38.0852 20.0705 37.1668 23.0594 36.2484 26.0774C35.3299 29.1243 33.4931 30.5462 30.3647 30.5462C25.1124 30.5753 19.8602 30.5753 14.6079 30.5753C11.0203 30.5753 9.64268 28.7181 10.6759 25.2358C11.4508 22.5371 12.3119 19.8963 13.1155 17.1976C13.3451 16.4141 13.7469 16.1239 14.5505 16.1529C15.6412 16.211 16.7318 16.1819 18.1381 16.1819C17.1623 19.4901 16.2726 22.5951 15.3255 25.8742C15.8134 25.9323 16.2152 25.9903 16.617 25.9903C21.1517 25.9903 25.6865 25.9613 30.2212 26.0193C31.2544 26.0193 31.6275 25.6421 31.8858 24.7135C33.0052 20.97 34.2106 17.2556 35.33 13.5122C35.617 12.5546 36.0188 12.0322 37.0807 12.0612C38.0852 12.0903 39.1185 11.9452 40.5535 11.8291Z" fill="#1C1C1C"/>
<path d="M0 69.7504C1.26284 65.6007 2.43957 61.7702 3.61631 57.9687C5.13745 53.0936 6.6873 48.2184 8.17974 43.3142C8.46675 42.3856 8.83986 41.9213 9.87309 42.0084C11.0498 42.0955 12.2553 42.0374 13.6903 42.0374C13.432 42.966 13.2598 43.7205 13.0589 44.417C10.5906 52.3971 8.12234 60.3773 5.68277 68.3575C5.36706 69.4022 4.90785 69.8665 3.78851 69.7794C2.61178 69.6924 1.43504 69.7504 0 69.7504Z" fill="#1C1C1C"/>
<path d="M166.754 27.0061C167.471 24.7426 168.045 22.7693 168.677 20.7961C170.743 14.3829 172.838 7.96973 174.848 1.52755C175.192 0.395818 175.651 -0.0684765 176.857 0.0475988C177.832 0.163674 178.837 0.0766106 180.042 0.0766106C179.784 1.06325 179.641 1.78873 179.411 2.5142C177 10.0301 174.561 17.575 172.178 25.0908C171.92 25.9324 171.518 26.3967 170.6 26.4547C169.452 26.5418 168.275 26.7739 166.754 27.0061Z" fill="#1C1C1C"/>
<path d="M50.601 42.2695C50.1705 43.7204 49.8261 45.1133 49.2521 46.4191C49.0799 46.8254 48.2475 47.1736 47.7022 47.1736C40.1252 47.2317 32.5195 47.2027 24.9424 47.2027C23.6222 47.2027 22.2733 47.2027 20.666 47.2027C21.2113 45.5196 21.6418 44.0106 22.1872 42.5306C22.2733 42.2694 22.7899 42.0373 23.0769 42.0373C32.089 42.0083 41.1297 42.0373 50.1418 42.0373C50.2279 42.0953 50.314 42.1534 50.601 42.2695Z" fill="#1C1C1C"/>
<path d="M25.0859 69.7792C25.8896 67.0805 26.6071 64.7009 27.3533 62.2924C28.3578 59.0132 29.4198 55.7631 30.4243 52.513C30.6539 51.7295 31.0557 51.4103 31.8593 51.4393C33.1509 51.4683 34.4137 51.4393 35.9062 51.4393C35.7053 52.1938 35.5905 52.7161 35.4469 53.2675C33.8397 58.3748 32.2324 63.4531 30.6539 68.5894C30.3669 69.489 29.9651 69.8372 29.0467 69.8082C27.8125 69.7212 26.5784 69.7792 25.0859 69.7792Z" fill="#1C1C1C"/>
<path d="M141.324 77.2667C141.266 78.6015 140.549 79.0078 139.343 78.9207C138.109 78.8337 136.846 78.9788 135.612 78.8917C134.407 78.8047 133.804 79.2109 133.919 80.6329C135.756 80.6329 137.593 80.6329 139.516 80.6329C139.516 81.9387 139.229 82.6932 137.822 82.5771C136.732 82.49 135.612 82.6642 134.522 82.6061C133.402 82.5481 132.771 82.8673 132.828 84.3182C134.923 84.3182 137.019 84.3182 139.114 84.3182C139.2 85.7982 138.769 86.3786 137.42 86.3205C135.038 86.2335 132.656 86.2915 130.016 86.2915C130.934 83.2445 131.795 80.4007 132.714 77.5568C132.8 77.2957 133.259 76.9765 133.575 76.9765C136.043 76.9475 138.54 77.0055 141.008 77.0635C141.123 77.0635 141.238 77.2086 141.324 77.2667Z" fill="#38368E"/>
<path d="M148.758 83.4183C149.389 84.3469 149.906 85.1594 150.538 86.059C149.246 86.4653 148.184 86.5233 147.438 85.1884C147.122 84.6081 146.692 83.9987 146.175 83.6504C145.17 82.983 143.764 83.5924 143.477 84.8692C143.19 86.1461 142.616 86.6104 141.152 86.088C142.013 83.3022 142.817 80.5164 143.764 77.7596C143.908 77.3824 144.654 77.0051 145.142 77.0051C146.95 76.9181 148.787 76.9471 150.595 77.0051C152.087 77.0632 152.661 77.8467 152.317 79.2976C151.886 81.2419 151.025 82.896 148.758 83.4183ZM144.596 81.5321C145.802 81.5321 146.893 81.5321 147.983 81.5321C149.82 81.503 150.337 80.8937 150.251 78.8914C149.303 78.8914 148.385 78.8914 147.438 78.8914C145.113 78.9204 145.113 78.9204 144.596 81.5321Z" fill="#38368E"/>
<path d="M152.689 86.0882C153.493 83.4475 154.182 80.8358 155.072 78.3112C155.301 77.7018 156.191 77.0634 156.851 77.0053C158.458 76.8312 160.094 76.8892 161.702 76.9763C163.424 77.0634 164.055 77.9629 163.739 79.7041C163.28 82.3738 161.558 83.8538 158.889 83.8828C158.229 83.8828 157.54 83.9408 156.88 83.8538C155.732 83.7377 154.957 84.0279 154.756 85.3337C154.584 86.6105 153.694 86.3204 152.689 86.0882ZM155.875 82.0546C157.368 82.0546 158.688 82.2287 159.922 81.9966C160.611 81.8515 161.214 81.0389 161.702 80.4005C161.902 80.1393 161.702 79.1237 161.673 79.1237C160.066 79.0657 158.487 79.0657 156.88 79.0947C156.794 79.0947 156.708 79.2978 156.65 79.4429C156.392 80.2554 156.162 81.068 155.875 82.0546Z" fill="#38368E"/>
<path d="M173.411 33.4769C173.239 36.1176 173.067 36.2917 170.885 36.2917C168.618 36.2917 166.351 36.2917 164.055 36.2917C164.284 33.8541 164.37 33.738 166.322 33.3318C167.527 29.1821 168.991 28.2825 172.808 29.4142C172.55 30.6911 172.349 31.7648 170.484 31.3005C169.192 30.9813 168.876 32.113 168.905 33.5059C170.426 33.4769 171.919 33.4769 173.411 33.4769Z" fill="#1C1C1C"/>
<path d="M165.633 6.08341C165.145 7.65042 164.801 8.92725 164.37 10.1751C164.284 10.4072 163.911 10.7264 163.653 10.7264C162.332 10.7845 161.041 10.7554 159.434 10.7554C159.922 9.18842 160.295 7.91159 160.754 6.6928C160.84 6.43163 161.299 6.14144 161.586 6.11242C162.82 6.02536 164.054 6.08341 165.633 6.08341Z" fill="#1C1C1C"/>
<path d="M153.176 10.7264C153.635 9.21746 154.008 7.88259 154.467 6.60577C154.553 6.37361 154.955 6.11244 155.214 6.11244C156.476 6.0544 157.768 6.08343 159.318 6.08343C158.83 7.62143 158.457 8.9563 158.026 10.2621C157.969 10.4653 157.624 10.7264 157.424 10.7264C156.046 10.7555 154.726 10.7264 153.176 10.7264Z" fill="#1C1C1C"/>
<path d="M24.168 13.2218C24.2541 12.7575 24.2828 12.5834 24.3115 12.4093C25.3447 8.31763 25.5456 8.17254 30.109 8.81096C29.6785 10.2039 29.2767 11.5387 28.8462 12.8736C28.7888 13.0477 28.4731 13.2218 28.2722 13.2218C26.9807 13.2508 25.6604 13.2218 24.168 13.2218Z" fill="#1C1C1C"/>
<path d="M128.064 5.79361C128.208 5.1552 128.265 4.77795 128.351 4.42972C129.241 0.918444 130.16 0.425127 133.977 1.44079C133.604 2.71761 133.231 3.99444 132.8 5.24224C132.714 5.4744 132.341 5.7646 132.083 5.7646C130.82 5.82264 129.557 5.79361 128.064 5.79361Z" fill="#1C1C1C"/>
<path d="M121.865 5.79312C122.353 4.28415 122.698 3.00731 123.157 1.7595C123.243 1.49833 123.702 1.20815 123.989 1.20815C125.223 1.15012 126.457 1.17912 127.921 1.17912C127.491 2.65908 127.146 3.93593 126.716 5.18374C126.63 5.44491 126.285 5.73509 126.027 5.76411C124.735 5.82215 123.415 5.79312 121.865 5.79312Z" fill="#1C1C1C"/>
</svg>
